<mxfile host="app.diagrams.net" modified="2020-11-20T23:24:15.494Z" agent="5.0 (Macintosh; Intel Mac OS X 10_15_7) AppleWebKit/537.36 (KHTML, like Gecko) Chrome/86.0.4240.198 Safari/537.36" etag="TKsr8XV-DJCuHtcRd3BB" version="13.10.0" type="github">
  <diagram id="tuF2SRHpO_IFWHsfD7gc" name="Page-1">
    <mxGraphModel dx="857" dy="650" grid="1" gridSize="10" guides="1" tooltips="1" connect="1" arrows="1" fold="1" page="1" pageScale="1" pageWidth="850" pageHeight="1100" math="0" shadow="0">
      <root>
        <mxCell id="0" />
        <mxCell id="1" parent="0" />
        <mxCell id="rKpsADtZhaYRqC5yFCHP-77" value="" style="whiteSpace=wrap;html=1;aspect=fixed;fillColor=#ffe6cc;strokeColor=#d79b00;" vertex="1" parent="1">
          <mxGeometry x="630" y="830" width="100" height="100" as="geometry" />
        </mxCell>
        <mxCell id="rKpsADtZhaYRqC5yFCHP-25" value="Cloudfront" style="whiteSpace=wrap;html=1;aspect=fixed;fillColor=#ffe6cc;strokeColor=#d79b00;" vertex="1" parent="1">
          <mxGeometry x="580" y="200" width="80" height="80" as="geometry" />
        </mxCell>
        <mxCell id="rKpsADtZhaYRqC5yFCHP-26" value="Load&lt;br&gt;Balancer" style="whiteSpace=wrap;html=1;aspect=fixed;fillColor=#ffe6cc;strokeColor=#d79b00;" vertex="1" parent="1">
          <mxGeometry x="582" y="310" width="80" height="80" as="geometry" />
        </mxCell>
        <mxCell id="rKpsADtZhaYRqC5yFCHP-27" value="ECS" style="whiteSpace=wrap;html=1;fillColor=#d5e8d4;strokeColor=#82b366;align=left;verticalAlign=top;fontStyle=1;fontSize=15;labelPosition=center;verticalLabelPosition=middle;imageAspect=1;" vertex="1" parent="1">
          <mxGeometry x="580" y="420" width="460" height="350" as="geometry" />
        </mxCell>
        <mxCell id="rKpsADtZhaYRqC5yFCHP-28" value="Lambda" style="whiteSpace=wrap;html=1;aspect=fixed;fillColor=#ffe6cc;strokeColor=#d79b00;" vertex="1" parent="1">
          <mxGeometry x="704" y="200" width="80" height="80" as="geometry" />
        </mxCell>
        <mxCell id="rKpsADtZhaYRqC5yFCHP-29" value="" style="endArrow=classic;startArrow=classic;html=1;entryX=0;entryY=0.5;entryDx=0;entryDy=0;exitX=1;exitY=0.5;exitDx=0;exitDy=0;" edge="1" parent="1" source="rKpsADtZhaYRqC5yFCHP-25" target="rKpsADtZhaYRqC5yFCHP-28">
          <mxGeometry width="50" height="50" relative="1" as="geometry">
            <mxPoint x="524" y="480" as="sourcePoint" />
            <mxPoint x="574" y="430" as="targetPoint" />
          </mxGeometry>
        </mxCell>
        <mxCell id="rKpsADtZhaYRqC5yFCHP-30" value="" style="endArrow=classic;startArrow=classic;html=1;entryX=0.5;entryY=1;entryDx=0;entryDy=0;exitX=0.5;exitY=0;exitDx=0;exitDy=0;" edge="1" parent="1" source="rKpsADtZhaYRqC5yFCHP-26" target="rKpsADtZhaYRqC5yFCHP-25">
          <mxGeometry width="50" height="50" relative="1" as="geometry">
            <mxPoint x="524" y="480" as="sourcePoint" />
            <mxPoint x="574" y="430" as="targetPoint" />
          </mxGeometry>
        </mxCell>
        <mxCell id="rKpsADtZhaYRqC5yFCHP-31" value="" style="endArrow=classic;startArrow=classic;html=1;exitX=0.5;exitY=0;exitDx=0;exitDy=0;" edge="1" parent="1" source="rKpsADtZhaYRqC5yFCHP-27" target="rKpsADtZhaYRqC5yFCHP-26">
          <mxGeometry width="50" height="50" relative="1" as="geometry">
            <mxPoint x="632" y="320" as="sourcePoint" />
            <mxPoint x="630" y="290" as="targetPoint" />
          </mxGeometry>
        </mxCell>
        <mxCell id="rKpsADtZhaYRqC5yFCHP-33" value="RDS" style="shape=cylinder3;whiteSpace=wrap;html=1;boundedLbl=1;backgroundOutline=1;size=15;fillColor=#dae8fc;strokeColor=#6c8ebf;" vertex="1" parent="1">
          <mxGeometry x="650" y="840" width="60" height="80" as="geometry" />
        </mxCell>
        <mxCell id="rKpsADtZhaYRqC5yFCHP-49" value="" style="endArrow=classic;startArrow=classic;html=1;exitX=0.5;exitY=0;exitDx=0;exitDy=0;exitPerimeter=0;" edge="1" parent="1" source="rKpsADtZhaYRqC5yFCHP-33" target="rKpsADtZhaYRqC5yFCHP-42">
          <mxGeometry width="50" height="50" relative="1" as="geometry">
            <mxPoint x="740" y="590" as="sourcePoint" />
            <mxPoint x="790" y="540" as="targetPoint" />
          </mxGeometry>
        </mxCell>
        <mxCell id="rKpsADtZhaYRqC5yFCHP-53" value="CloudWatch" style="whiteSpace=wrap;html=1;aspect=fixed;fillColor=#ffe6cc;strokeColor=#d79b00;" vertex="1" parent="1">
          <mxGeometry x="990" y="310" width="80" height="80" as="geometry" />
        </mxCell>
        <mxCell id="rKpsADtZhaYRqC5yFCHP-55" value="" style="endArrow=classic;html=1;fontSize=15;exitX=0.894;exitY=-0.009;exitDx=0;exitDy=0;exitPerimeter=0;" edge="1" parent="1" source="rKpsADtZhaYRqC5yFCHP-27">
          <mxGeometry width="50" height="50" relative="1" as="geometry">
            <mxPoint x="980" y="440" as="sourcePoint" />
            <mxPoint x="1030" y="390" as="targetPoint" />
          </mxGeometry>
        </mxCell>
        <mxCell id="rKpsADtZhaYRqC5yFCHP-56" value="" style="endArrow=classic;html=1;fontSize=15;entryX=0;entryY=0.5;entryDx=0;entryDy=0;" edge="1" parent="1" source="rKpsADtZhaYRqC5yFCHP-26" target="rKpsADtZhaYRqC5yFCHP-53">
          <mxGeometry width="50" height="50" relative="1" as="geometry">
            <mxPoint x="840" y="360" as="sourcePoint" />
            <mxPoint x="890" y="310" as="targetPoint" />
          </mxGeometry>
        </mxCell>
        <mxCell id="rKpsADtZhaYRqC5yFCHP-76" value="" style="rounded=0;whiteSpace=wrap;html=1;fontSize=15;align=left;fillColor=none;dashed=1;" vertex="1" parent="1">
          <mxGeometry x="590" y="445" width="440" height="150" as="geometry" />
        </mxCell>
        <mxCell id="rKpsADtZhaYRqC5yFCHP-44" value="" style="group" vertex="1" connectable="0" parent="1">
          <mxGeometry x="600" y="460" width="120" height="120" as="geometry" />
        </mxCell>
        <mxCell id="rKpsADtZhaYRqC5yFCHP-32" value="Resin&lt;br&gt;Container" style="whiteSpace=wrap;html=1;aspect=fixed;fillColor=#f8cecc;strokeColor=#b85450;" vertex="1" parent="rKpsADtZhaYRqC5yFCHP-44">
          <mxGeometry width="80" height="80" as="geometry" />
        </mxCell>
        <mxCell id="rKpsADtZhaYRqC5yFCHP-35" value="Resin&lt;br&gt;Container" style="whiteSpace=wrap;html=1;aspect=fixed;fillColor=#f8cecc;strokeColor=#b85450;" vertex="1" parent="rKpsADtZhaYRqC5yFCHP-44">
          <mxGeometry x="10" y="10" width="80" height="80" as="geometry" />
        </mxCell>
        <mxCell id="rKpsADtZhaYRqC5yFCHP-36" value="Resin&lt;br&gt;Container" style="whiteSpace=wrap;html=1;aspect=fixed;fillColor=#f8cecc;strokeColor=#b85450;" vertex="1" parent="rKpsADtZhaYRqC5yFCHP-44">
          <mxGeometry x="20" y="20" width="80" height="80" as="geometry" />
        </mxCell>
        <mxCell id="rKpsADtZhaYRqC5yFCHP-37" value="Resin&lt;br&gt;Container" style="whiteSpace=wrap;html=1;aspect=fixed;fillColor=#f8cecc;strokeColor=#b85450;" vertex="1" parent="rKpsADtZhaYRqC5yFCHP-44">
          <mxGeometry x="30" y="30" width="80" height="80" as="geometry" />
        </mxCell>
        <mxCell id="rKpsADtZhaYRqC5yFCHP-38" value="Resin&lt;br&gt;Container" style="whiteSpace=wrap;html=1;aspect=fixed;fillColor=#f8cecc;strokeColor=#b85450;" vertex="1" parent="rKpsADtZhaYRqC5yFCHP-44">
          <mxGeometry x="40" y="40" width="80" height="80" as="geometry" />
        </mxCell>
        <mxCell id="rKpsADtZhaYRqC5yFCHP-47" value="&lt;font style=&quot;font-size: 20px&quot;&gt;Mid Tier&lt;/font&gt;" style="text;html=1;resizable=0;autosize=1;align=center;verticalAlign=middle;points=[];fillColor=none;strokeColor=none;rounded=0;" vertex="1" parent="1">
          <mxGeometry x="720" y="460" width="90" height="20" as="geometry" />
        </mxCell>
        <mxCell id="rKpsADtZhaYRqC5yFCHP-57" value="AutoScaling&lt;br&gt;Group" style="whiteSpace=wrap;html=1;aspect=fixed;fillColor=#ffe6cc;strokeColor=#d79b00;" vertex="1" parent="1">
          <mxGeometry x="830" y="460" width="80" height="80" as="geometry" />
        </mxCell>
        <mxCell id="rKpsADtZhaYRqC5yFCHP-78" value="Legend" style="rounded=0;whiteSpace=wrap;html=1;fontSize=15;align=left;dashed=1;verticalAlign=bottom;labelPosition=center;verticalLabelPosition=top;" vertex="1" parent="1">
          <mxGeometry x="340" y="950" width="790" height="150" as="geometry" />
        </mxCell>
        <mxCell id="rKpsADtZhaYRqC5yFCHP-79" value="AWS Service" style="whiteSpace=wrap;html=1;aspect=fixed;fillColor=#ffe6cc;strokeColor=#d79b00;labelPosition=center;verticalLabelPosition=top;align=left;verticalAlign=bottom;" vertex="1" parent="1">
          <mxGeometry x="370" y="1000" width="80" height="80" as="geometry" />
        </mxCell>
        <mxCell id="rKpsADtZhaYRqC5yFCHP-81" value="Backend&lt;br&gt;" style="whiteSpace=wrap;html=1;aspect=fixed;fillColor=#dae8fc;strokeColor=#6c8ebf;labelPosition=center;verticalLabelPosition=top;align=left;verticalAlign=bottom;" vertex="1" parent="1">
          <mxGeometry x="480" y="1000" width="80" height="80" as="geometry" />
        </mxCell>
        <mxCell id="rKpsADtZhaYRqC5yFCHP-89" value="Mit Tier" style="whiteSpace=wrap;html=1;aspect=fixed;fillColor=#f8cecc;strokeColor=#b85450;labelPosition=center;verticalLabelPosition=top;align=left;verticalAlign=bottom;" vertex="1" parent="1">
          <mxGeometry x="590" y="1000" width="80" height="80" as="geometry" />
        </mxCell>
        <mxCell id="rKpsADtZhaYRqC5yFCHP-90" value="Group" style="rounded=0;whiteSpace=wrap;html=1;fontSize=15;align=left;dashed=1;fillColor=none;labelPosition=center;verticalLabelPosition=top;verticalAlign=bottom;" vertex="1" parent="1">
          <mxGeometry x="703" y="1000" width="81" height="80" as="geometry" />
        </mxCell>
        <mxCell id="rKpsADtZhaYRqC5yFCHP-92" value="S3" style="whiteSpace=wrap;html=1;aspect=fixed;fillColor=#ffe6cc;strokeColor=#d79b00;" vertex="1" parent="1">
          <mxGeometry x="750" y="830" width="80" height="80" as="geometry" />
        </mxCell>
        <mxCell id="rKpsADtZhaYRqC5yFCHP-93" value="RedShift" style="whiteSpace=wrap;html=1;aspect=fixed;fillColor=#ffe6cc;strokeColor=#d79b00;" vertex="1" parent="1">
          <mxGeometry x="860" y="830" width="80" height="80" as="geometry" />
        </mxCell>
        <mxCell id="rKpsADtZhaYRqC5yFCHP-94" value="" style="endArrow=classic;startArrow=classic;html=1;fontSize=15;exitX=0.5;exitY=0;exitDx=0;exitDy=0;entryX=0.602;entryY=1.004;entryDx=0;entryDy=0;entryPerimeter=0;" edge="1" parent="1" source="rKpsADtZhaYRqC5yFCHP-92" target="rKpsADtZhaYRqC5yFCHP-27">
          <mxGeometry width="50" height="50" relative="1" as="geometry">
            <mxPoint x="760" y="570" as="sourcePoint" />
            <mxPoint x="790" y="790" as="targetPoint" />
          </mxGeometry>
        </mxCell>
        <mxCell id="rKpsADtZhaYRqC5yFCHP-95" value="" style="endArrow=classic;startArrow=classic;html=1;fontSize=15;exitX=0.416;exitY=-0.026;exitDx=0;exitDy=0;exitPerimeter=0;" edge="1" parent="1" source="rKpsADtZhaYRqC5yFCHP-93" target="rKpsADtZhaYRqC5yFCHP-27">
          <mxGeometry width="50" height="50" relative="1" as="geometry">
            <mxPoint x="834" y="860" as="sourcePoint" />
            <mxPoint x="910" y="780" as="targetPoint" />
          </mxGeometry>
        </mxCell>
        <mxCell id="rKpsADtZhaYRqC5yFCHP-96" value="Lambda" style="whiteSpace=wrap;html=1;aspect=fixed;fillColor=#ffe6cc;strokeColor=#d79b00;" vertex="1" parent="1">
          <mxGeometry x="930" y="460" width="80" height="80" as="geometry" />
        </mxCell>
        <mxCell id="rKpsADtZhaYRqC5yFCHP-60" value="" style="rounded=0;whiteSpace=wrap;html=1;fontSize=15;align=left;fillColor=none;dashed=1;" vertex="1" parent="1">
          <mxGeometry x="590" y="600" width="440" height="150" as="geometry" />
        </mxCell>
        <mxCell id="rKpsADtZhaYRqC5yFCHP-58" value="AutoScaling&lt;br&gt;Group" style="whiteSpace=wrap;html=1;aspect=fixed;fillColor=#ffe6cc;strokeColor=#d79b00;" vertex="1" parent="1">
          <mxGeometry x="830" y="620" width="80" height="80" as="geometry" />
        </mxCell>
        <mxCell id="rKpsADtZhaYRqC5yFCHP-97" value="" style="group" vertex="1" connectable="0" parent="1">
          <mxGeometry x="600" y="620" width="210" height="120" as="geometry" />
        </mxCell>
        <mxCell id="rKpsADtZhaYRqC5yFCHP-34" value="Resin&lt;br&gt;Container" style="whiteSpace=wrap;html=1;aspect=fixed;fillColor=#dae8fc;strokeColor=#6c8ebf;" vertex="1" parent="rKpsADtZhaYRqC5yFCHP-97">
          <mxGeometry width="80" height="80" as="geometry" />
        </mxCell>
        <mxCell id="rKpsADtZhaYRqC5yFCHP-39" value="Resin&lt;br&gt;Container" style="whiteSpace=wrap;html=1;aspect=fixed;fillColor=#dae8fc;strokeColor=#6c8ebf;" vertex="1" parent="rKpsADtZhaYRqC5yFCHP-97">
          <mxGeometry x="10" y="10" width="80" height="80" as="geometry" />
        </mxCell>
        <mxCell id="rKpsADtZhaYRqC5yFCHP-40" value="Resin&lt;br&gt;Container" style="whiteSpace=wrap;html=1;aspect=fixed;fillColor=#dae8fc;strokeColor=#6c8ebf;" vertex="1" parent="rKpsADtZhaYRqC5yFCHP-97">
          <mxGeometry x="20" y="20" width="80" height="80" as="geometry" />
        </mxCell>
        <mxCell id="rKpsADtZhaYRqC5yFCHP-41" value="Resin&lt;br&gt;Container" style="whiteSpace=wrap;html=1;aspect=fixed;fillColor=#dae8fc;strokeColor=#6c8ebf;" vertex="1" parent="rKpsADtZhaYRqC5yFCHP-97">
          <mxGeometry x="30" y="30" width="80" height="80" as="geometry" />
        </mxCell>
        <mxCell id="rKpsADtZhaYRqC5yFCHP-42" value="Resin&lt;br&gt;Container" style="whiteSpace=wrap;html=1;aspect=fixed;fillColor=#dae8fc;strokeColor=#6c8ebf;" vertex="1" parent="rKpsADtZhaYRqC5yFCHP-97">
          <mxGeometry x="40" y="40" width="80" height="80" as="geometry" />
        </mxCell>
        <mxCell id="rKpsADtZhaYRqC5yFCHP-48" value="&lt;font style=&quot;font-size: 20px&quot;&gt;Backend&lt;/font&gt;" style="text;html=1;resizable=0;autosize=1;align=center;verticalAlign=middle;points=[];fillColor=none;strokeColor=none;rounded=0;" vertex="1" parent="rKpsADtZhaYRqC5yFCHP-97">
          <mxGeometry x="120" width="90" height="20" as="geometry" />
        </mxCell>
        <mxCell id="rKpsADtZhaYRqC5yFCHP-98" value="Lambda" style="whiteSpace=wrap;html=1;aspect=fixed;fillColor=#ffe6cc;strokeColor=#d79b00;" vertex="1" parent="1">
          <mxGeometry x="930" y="620" width="80" height="80" as="geometry" />
        </mxCell>
      </root>
    </mxGraphModel>
  </diagram>
</mxfile>
